<svg xmlns="http://www.w3.org/2000/svg" width="650.28" height="110.44" viewBox="0 0 650.28 110.44">
  <defs>
    <style>
      .cls-1 {
        fill: #fff;
        fill-rule: evenodd;
      }
    </style>
  </defs>
  <path id="ACCESS.svg" class="cls-1" d="M2436.08,6103.37l14.29,33.09h6.93l-44.56-103.94-44.7,103.94h6.93l14.29-33.09h46.82Zm-2.54-6h-41.73l20.93-48.57Zm146.12-49.77a54.707,54.707,0,0,0-35.36-13.07c-30.28,0-55.74,23.21-55.74,51.76,0,28.16,25.89,51.51,55.6,51.51a57.458,57.458,0,0,0,35.5-12.54v-8.81c-7.92,9.07-23.48,15.34-35.79,15.34-12.59,0-25.32-5.87-34.23-13.87-8.91-8.28-14.29-19.35-14.29-31.09,0-24.69,21.93-46.3,48.52-46.3,13.16,0,27.59,6.4,35.79,15.88v-8.81Zm135.66,0a54.713,54.713,0,0,0-35.37-13.07c-30.27,0-55.73,23.21-55.73,51.76,0,28.16,25.89,51.51,55.59,51.51a57.465,57.465,0,0,0,35.51-12.54v-8.81c-7.92,9.07-23.48,15.34-35.79,15.34-12.59,0-25.32-5.87-34.23-13.87-8.92-8.28-14.29-19.35-14.29-31.09,0-24.69,21.92-46.3,48.52-46.3,13.16,0,27.58,6.4,35.79,15.88v-8.81Zm101.85-5.74v-6h-50.93v100.6h50.93v-6h-44.14v-46.03h43v-6.01h-43v-36.56h44.14Zm81.96-7.97a28.7,28.7,0,0,0-28.64,28.72,27.924,27.924,0,0,0,7.19,18.96,27.5,27.5,0,0,0,18.05,9.48,23.453,23.453,0,0,1,20.59,23.2,23.388,23.388,0,0,1-23.27,23.34,22.056,22.056,0,0,1-18.33-8.91l-4.23,3.39a28.743,28.743,0,0,0,42.86,2.48,28.673,28.673,0,0,0-16.83-48.74,22.873,22.873,0,0,1-14.78-7.78,23.327,23.327,0,0,1,17.4-38.76,22.056,22.056,0,0,1,18.33,8.91l4.23-3.25a27.258,27.258,0,0,0-22.57-11.04h0Zm96.61,0a28.7,28.7,0,0,0-28.63,28.72,27.876,27.876,0,0,0,7.19,18.96,27.476,27.476,0,0,0,18.05,9.48,22.872,22.872,0,0,1,14.74,7.78,23.261,23.261,0,0,1-.99,31.9,22.352,22.352,0,0,1-16.43,6.86,22.031,22.031,0,0,1-18.33-8.91l-4.23,3.39a28.743,28.743,0,0,0,42.86,2.48,28.679,28.679,0,0,0-16.84-48.74,22.873,22.873,0,0,1-14.78-7.78,23.327,23.327,0,0,1,17.4-38.76,22.031,22.031,0,0,1,18.33,8.91l4.23-3.25a27.245,27.245,0,0,0-22.57-11.04h0Z" transform="translate(-2368.03 -6032.53)"/>
</svg>
