<svg xmlns="http://www.w3.org/2000/svg" width="194.1" height="27.75" viewBox="0 0 194.1 27.75">
  <defs>
    <style>
      .cls-1 {
        fill: #fff;
        fill-rule: evenodd;
      }
    </style>
  </defs>
  <path id="CONCEPT.svg" class="cls-1" d="M1835.04,2764.17a14.312,14.312,0,0,0,8.16-2.89v-2.48a12.261,12.261,0,0,1-8.26,3.11,11.191,11.191,0,0,1-11.2-11.58c0-6.48,4.68-11.68,11.51-11.68a13.519,13.519,0,0,1,8.09,3.24v-2.51a13.182,13.182,0,0,0-8.09-2.89A13.84,13.84,0,0,0,1835.04,2764.17Zm30.96,0.07a13.877,13.877,0,1,0-13.56-14.01A13.8,13.8,0,0,0,1866,2764.24Zm11.68-13.94a11.491,11.491,0,1,1-11.43-11.58A11.474,11.474,0,0,1,1877.68,2750.3Zm14.78-8.16,20.71,22.03v-27.19h-2.09v21.86l-20.88-22.07v26.92h2.26v-21.55Zm44.94,22.03a14.253,14.253,0,0,0,8.16-2.89v-2.48a12.261,12.261,0,0,1-8.26,3.11c-6.28,0-11.19-4.95-11.19-11.58,0-6.48,4.67-11.68,11.5-11.68a13.464,13.464,0,0,1,8.09,3.24v-2.51a13.16,13.16,0,0,0-8.09-2.89A13.84,13.84,0,0,0,1937.4,2764.17Zm18.73-.48h12.76v-2.24h-10.5v-11.26h10.11v-2.12h-10.11v-8.89h10.39v-2.2h-12.65v26.71Zm29-12.49c4.89,0,7.57-3.17,7.57-7.21a6.882,6.882,0,0,0-7.18-7.01h-6.07v26.71h2.27V2751.2h3.41Zm0.07-12.13c2.79,0,5.2,1.43,5.2,4.99a4.736,4.736,0,0,1-5.09,5.05h-3.59v-10.04h3.48Zm30.23,0.11v-2.2h-15.58v2.2h6.66v24.51h2.26v-24.51h6.66Z" transform="translate(-1821.34 -2736.5)"/>
</svg>
