<svg xmlns="http://www.w3.org/2000/svg" width="650.5" height="45.13" viewBox="0 0 650.5 45.13">
  <defs>
    <style>
      .cls-1 {
        fill: #fff;
        fill-rule: evenodd;
      }
    </style>
  </defs>
  <path id="OPEN.svg" class="cls-1" d="M1597.49,4150.78l13.02-13.68c3.86-3.98,8.44-8.58,8.44-14.24,0-7.07-6.01-12.39-13.44-12.39a15.3,15.3,0,0,0-10.64,4.48c-2.19,2.41-2.67,4.99-2.79,8.02h2.85c-0.17-5.78,4.46-9.98,10.58-9.98,5.77,0,10.59,4.2,10.59,9.7,0,4.93-4.88,9.75-8.27,13.29l-16.7,17.32h27.64v-2.52h-21.28Zm73.17-40.31c-12.66,0-23.24,9.81-23.24,21.69s10.64,21.7,23.24,21.7,23.24-9.81,23.24-21.7S1683.26,4110.47,1670.66,4110.47Zm0,2.52c11.12,0,20.39,8.75,20.39,19.17,0,10.38-9.27,19.18-20.39,19.18-11.17,0-20.39-8.75-20.39-19.18S1659.49,4112.99,1670.66,4112.99Zm57.24,37.79,13.02-13.68c3.86-3.98,8.44-8.58,8.44-14.24,0-7.07-6-12.39-13.44-12.39a15.3,15.3,0,0,0-10.64,4.48c-2.19,2.41-2.67,4.99-2.79,8.02h2.85c-0.17-5.78,4.46-9.98,10.58-9.98,5.77,0,10.59,4.2,10.59,9.7,0,4.93-4.88,9.75-8.27,13.29l-16.7,17.32h27.64v-2.52H1727.9Zm71.98-40.31c-12.66,0-23.24,9.81-23.24,21.69s10.64,21.7,23.24,21.7,23.24-9.81,23.24-21.7S1812.48,4110.47,1799.88,4110.47Zm0,2.52c11.12,0,20.39,8.75,20.39,19.17,0,10.38-9.27,19.18-20.39,19.18-11.17,0-20.39-8.75-20.39-19.18S1788.71,4112.99,1799.88,4112.99Zm104.85,29.77v-33.19h-0.35l-26.69,35.38v0.33h24.19v8.02h2.85v-8.02h6.3v-2.52h-6.3Zm-2.85,0h-18.96v-0.34l18.6-24.67h0.36v25.01Zm24.73,6.5a2.3,2.3,0,1,0,2.43,2.3A2.347,2.347,0,0,0,1926.61,4149.26Zm29.89-35.71v39.75h2.86v-42.27h-8.56l-1.37,2.52h7.07Zm82.57-3.08c-12.66,0-23.25,9.81-23.25,21.69s10.64,21.7,23.25,21.7,23.24-9.81,23.24-21.7S2051.67,4110.47,2039.07,4110.47Zm0,2.52c11.11,0,20.39,8.75,20.39,19.17,0,10.38-9.28,19.18-20.39,19.18-11.18,0-20.39-8.75-20.39-19.18S2027.89,4112.99,2039.07,4112.99Zm59.2,20.24h5.05c3.51,0,7.25-.45,9.99-2.69a10.825,10.825,0,0,0,3.74-8.36,10.951,10.951,0,0,0-4.04-8.69c-2.79-2.24-6.18-2.46-9.69-2.46h-7.91v42.27h2.86v-20.07Zm0-2.52v-17.16h4.69c2.74,0,5.59.06,7.85,1.68a8.252,8.252,0,0,1,3.39,6.84,8.08,8.08,0,0,1-2.91,6.34c-2.32,1.96-4.94,2.3-7.85,2.3h-5.17Zm71.56-17.16v-2.52h-21.4v42.27h21.4v-2.52h-18.54v-19.35h18.07v-2.52h-18.07v-15.36h18.54Zm71.81-2.52h-2.86v36.89l-37.62-37.45v42.83h2.85v-36.33l37.63,37.73v-43.67Z" transform="translate(-1591.12 -4109.56)"/>
</svg>
