<svg xmlns="http://www.w3.org/2000/svg" width="580.09" height="109.38" viewBox="0 0 580.09 109.38">
  <defs>
    <style>
      .cls-1 {
        fill: #fff;
        fill-rule: evenodd;
      }
    </style>
  </defs>
  <path id="ROOMS.svg" class="cls-1" d="M1044.98,4623.34c17.69,0.25,31.56-8.49,31.56-25.34,0-8.23-3.11-15.94-10.75-20.83-7.22-4.75-15.7-4.88-24.33-4.88h-12.3v108.95h5.79v-57.9h3.39l34.8,57.9h6.78Zm-10.03-5.79v-39.48h4.38c6.23,0,13.44-.25,19.1,2.19,7.64,3.09,11.32,10.29,11.32,17.49a18.7,18.7,0,0,1-7.5,15.3c-5.37,4.24-12.02,4.5-18.67,4.5h-8.63Zm179.36-28.97a54.453,54.453,0,1,0,15.99,38.62A52.416,52.416,0,0,0,1214.31,4588.58Zm-3.79,73.3a49.129,49.129,0,1,1,14.4-34.75A47.38,47.38,0,0,1,1210.52,4661.88Zm152.47-73.3a54.477,54.477,0,1,0,15.98,38.62A52.454,52.454,0,0,0,1362.99,4588.58Zm-3.8,73.3a49.129,49.129,0,1,1,14.4-34.75A47.38,47.38,0,0,1,1359.19,4661.88Zm159.26-89.28-48.52,97.04-48.52-97.04v109.06h5.37v-86.29l43.15,86.29,43.14-86.29v86.29h5.38V4572.6Zm68.24,0a28.7,28.7,0,0,0-28.64,28.71,27.886,27.886,0,0,0,7.2,18.96,27.421,27.421,0,0,0,18.05,9.47,23.476,23.476,0,0,1,20.59,23.2,23.405,23.405,0,0,1-23.27,23.34,22.062,22.062,0,0,1-18.34-8.91l-4.23,3.4a28.685,28.685,0,0,0,51.21-17.83,27.974,27.974,0,0,0-6.08-17.68,27.671,27.671,0,0,0-19.1-10.75,22.918,22.918,0,0,1-14.78-7.78,23.327,23.327,0,0,1,17.4-38.76,22.056,22.056,0,0,1,18.33,8.91l4.23-3.25a27.249,27.249,0,0,0-22.57-11.03h0Z" transform="translate(-1029.16 -4572.28)"/>
</svg>
